<svg xmlns="http://www.w3.org/2000/svg" viewBox="0 0 256 256" role="img" aria-labelledby="title desc">
  <title id="title">lanify-swdl</title>
  <desc id="desc">Lanify Steam Workshop downloader logo</desc>
  <defs>
    <linearGradient id="bg" x1="34" y1="28" x2="222" y2="228" gradientUnits="userSpaceOnUse">
      <stop offset="0" stop-color="#111827"/>
      <stop offset="0.52" stop-color="#0f172a"/>
      <stop offset="1" stop-color="#020617"/>
    </linearGradient>
    <linearGradient id="cyan" x1="78" y1="54" x2="190" y2="206" gradientUnits="userSpaceOnUse">
      <stop offset="0" stop-color="#67e8f9"/>
      <stop offset="0.48" stop-color="#22d3ee"/>
      <stop offset="1" stop-color="#0891b2"/>
    </linearGradient>
    <linearGradient id="steel" x1="76" y1="62" x2="179" y2="192" gradientUnits="userSpaceOnUse">
      <stop offset="0" stop-color="#f8fafc"/>
      <stop offset="1" stop-color="#cbd5e1"/>
    </linearGradient>
    <filter id="shadow" x="-20%" y="-20%" width="140%" height="140%" color-interpolation-filters="sRGB">
      <feDropShadow dx="0" dy="12" stdDeviation="12" flood-color="#000000" flood-opacity="0.34"/>
    </filter>
  </defs>

  <rect width="256" height="256" rx="44" fill="url(#bg)"/>
  <path d="M36 186V70c0-18.8 15.2-34 34-34h116" fill="none" stroke="#1e293b" stroke-width="8" stroke-linecap="round"/>
  <path d="M220 70v116c0 18.8-15.2 34-34 34H70" fill="none" stroke="#111827" stroke-width="8" stroke-linecap="round"/>

  <g filter="url(#shadow)">
    <path d="M73 67h33.5v84.7h46.7V183H73V67z" fill="url(#steel)"/>
    <path d="M117.9 67h31.7l13.2 49.9L181.5 67H216l-39.7 116h-29.2l-12.9-47.3L118.4 183H86.9l31-116z" fill="url(#cyan)"/>
  </g>

  <path d="M128 50v79" fill="none" stroke="#f8fafc" stroke-width="14" stroke-linecap="round"/>
  <path d="M97 111l31 31 31-31" fill="none" stroke="#f8fafc" stroke-width="14" stroke-linecap="round" stroke-linejoin="round"/>
  <path d="M83 204h90" fill="none" stroke="url(#cyan)" stroke-width="13" stroke-linecap="round"/>
  <path d="M93 219h70" fill="none" stroke="#155e75" stroke-width="5" stroke-linecap="round" opacity="0.9"/>
</svg>
